<svg width="37" height="37" viewBox="0 0 37 37" fill="none" xmlns="http://www.w3.org/2000/svg">
<g clip-path="url(#clip0_158_637)">
<path d="M0 18.5C0 22.159 1.08501 25.7357 3.11781 28.7781C5.15062 31.8204 8.03992 34.1916 11.4204 35.5918C14.8008 36.992 18.5205 37.3584 22.1092 36.6445C25.6978 35.9307 28.9942 34.1687 31.5815 31.5815C34.1687 28.9942 35.9307 25.6978 36.6445 22.1092C37.3584 18.5205 36.992 14.8008 35.5918 11.4204C34.1916 8.03992 31.8204 5.15062 28.7781 3.11781C25.7357 1.08501 22.159 0 18.5 0C13.5951 0.005305 8.89266 1.95611 5.42438 5.42438C1.95611 8.89266 0.005305 13.5951 0 18.5ZM26.8466 16.3201C27.4246 16.8983 27.7493 17.6824 27.7493 18.5C27.7493 19.3176 27.4246 20.1017 26.8466 20.6799L20.3053 27.2212L18.1254 25.0413L23.125 20.0417H9.25V16.9583H23.125L18.1254 11.9587L20.3053 9.77879L26.8466 16.3201Z" fill="#C4C4C4"/>
</g>
<defs>
<clipPath id="clip0_158_637">
<rect width="37" height="37" fill="white"/>
</clipPath>
</defs>
</svg>
