<svg width="37" height="37" viewBox="0 0 37 37" fill="none" xmlns="http://www.w3.org/2000/svg">
<g clip-path="url(#clip0_158_639)">
<path d="M37 18.5C37 14.841 35.915 11.2643 33.8822 8.22195C31.8494 5.17964 28.9601 2.80845 25.5796 1.40823C22.1992 0.00800453 18.4795 -0.358355 14.8908 0.355471C11.3022 1.0693 8.0058 2.83125 5.41852 5.41852C2.83125 8.0058 1.0693 11.3022 0.355474 14.8908C-0.358354 18.4795 0.00800957 22.1992 1.40823 25.5796C2.80845 28.9601 5.17964 31.8494 8.22195 33.8822C11.2643 35.915 14.841 37 18.5 37C23.4049 36.9947 28.1073 35.0439 31.5756 31.5756C35.0439 28.1073 36.9947 23.4049 37 18.5ZM10.1534 20.6799C9.57538 20.1017 9.25066 19.3176 9.25066 18.5C9.25066 17.6824 9.57538 16.8983 10.1534 16.3201L16.6947 9.77879L18.8746 11.9587L13.875 16.9583L27.75 16.9583L27.75 20.0417L13.875 20.0417L18.8746 25.0413L16.6947 27.2212L10.1534 20.6799Z" fill="#C4C4C4"/>
</g>
<defs>
<clipPath id="clip0_158_639">
<rect width="37" height="37" fill="white" transform="translate(37 37) rotate(180)"/>
</clipPath>
</defs>
</svg>
