<svg viewBox="0 0 12 24" fill="none" xmlns="http://www.w3.org/2000/svg">
<path d="M0 22.5026C0.00035478 22.1045 0.160734 21.7228 0.445877 21.4414L8.22034 13.7607C8.45566 13.5283 8.64233 13.2523 8.76968 12.9486C8.89704 12.6449 8.96259 12.3194 8.96259 11.9907C8.96259 11.6619 8.89704 11.3364 8.76968 11.0327C8.64233 10.729 8.45566 10.4531 8.22034 10.2207L0.45601 2.54496C0.179123 2.26173 0.0259127 1.8824 0.029376 1.48866C0.0328393 1.09491 0.1927 0.718267 0.474526 0.439839C0.756353 0.161411 1.1376 0.00347828 1.53614 5.67684e-05C1.93469 -0.00336474 2.31866 0.147999 2.60534 0.421546L10.3697 8.09125C11.4137 9.12469 12 10.5251 12 11.9852C12 13.4452 11.4137 14.8457 10.3697 15.8791L2.5952 23.5598C2.38293 23.7697 2.11248 23.9127 1.81801 23.9709C1.52353 24.029 1.21821 23.9997 0.940585 23.8866C0.662956 23.7735 0.425458 23.5817 0.258059 23.3354C0.0906608 23.0891 0.00086368 22.7993 0 22.5026Z" fill="#fff"/>
</svg>
