<svg width="6" height="3" viewBox="0 0 6 3" fill="none" xmlns="http://www.w3.org/2000/svg">
<path d="M5.87539 0.12371C5.83555 0.0845108 5.78816 0.0533971 5.73594 0.0321644C5.68372 0.0109316 5.62771 0 5.57114 0C5.51457 0 5.45856 0.0109316 5.40634 0.0321644C5.35412 0.0533971 5.30672 0.0845108 5.26689 0.12371L3.30425 2.03918C3.26441 2.07838 3.21702 2.1095 3.1648 2.13073C3.11258 2.15196 3.05657 2.16289 3 2.16289C2.94343 2.16289 2.88742 2.15196 2.8352 2.13073C2.78298 2.1095 2.73559 2.07838 2.69575 2.03918L0.733114 0.12371C0.693277 0.0845108 0.645882 0.0533971 0.593662 0.0321644C0.541443 0.0109316 0.485433 0 0.428862 0C0.372292 0 0.316282 0.0109316 0.264063 0.0321644C0.211843 0.0533971 0.164448 0.0845108 0.124611 0.12371C0.0447984 0.20207 0 0.30807 0 0.41856C0 0.529049 0.0447984 0.635049 0.124611 0.713409L2.09153 2.63307C2.33258 2.86803 2.65932 3 3 3C3.34068 3 3.66742 2.86803 3.90847 2.63307L5.87539 0.713409C5.9552 0.635049 6 0.529049 6 0.41856C6 0.30807 5.9552 0.20207 5.87539 0.12371Z" fill="#8A8A8A"/>
</svg>
