<svg width="247" height="247" viewBox="0 0 247 247" fill="none" xmlns="http://www.w3.org/2000/svg">
<g filter="url(#filter0_d_407_1529)">
<rect x="147" y="147" width="47" height="47" rx="5" transform="rotate(-180 147 147)" fill="#F8BA00" shape-rendering="crispEdges"/>
<path d="M127 115.998C127 116.264 126.893 116.518 126.703 116.706L121.52 121.826C121.363 121.981 121.238 122.165 121.154 122.368C121.069 122.57 121.025 122.787 121.025 123.006C121.025 123.225 121.069 123.442 121.154 123.645C121.238 123.847 121.363 124.031 121.52 124.186L126.696 129.303C126.881 129.492 126.983 129.745 126.98 130.008C126.978 130.27 126.872 130.521 126.684 130.707C126.496 130.892 126.242 130.998 125.976 131C125.71 131.002 125.454 130.901 125.263 130.719L120.087 125.606C119.391 124.917 119 123.983 119 123.01C119 122.037 119.391 121.103 120.087 120.414L125.27 115.293C125.411 115.154 125.592 115.058 125.788 115.019C125.984 114.981 126.188 115 126.373 115.076C126.558 115.151 126.716 115.279 126.828 115.443C126.94 115.607 126.999 115.8 127 115.998Z" fill="white"/>
</g>
<defs>
<filter id="filter0_d_407_1529" x="0" y="0" width="247" height="247" filterUnits="userSpaceOnUse" color-interpolation-filters="sRGB">
<feFlood flood-opacity="0" result="BackgroundImageFix"/>
<feColorMatrix in="SourceAlpha" type="matrix" values="0 0 0 0 0 0 0 0 0 0 0 0 0 0 0 0 0 0 127 0" result="hardAlpha"/>
<feOffset/>
<feGaussianBlur stdDeviation="50"/>
<feComposite in2="hardAlpha" operator="out"/>
<feColorMatrix type="matrix" values="0 0 0 0 0 0 0 0 0 0 0 0 0 0 0 0 0 0 0.05 0"/>
<feBlend mode="normal" in2="BackgroundImageFix" result="effect1_dropShadow_407_1529"/>
<feBlend mode="normal" in="SourceGraphic" in2="effect1_dropShadow_407_1529" result="shape"/>
</filter>
</defs>
</svg>
