<svg width="81" height="81" viewBox="0 0 81 81" fill="none" xmlns="http://www.w3.org/2000/svg">
<g clip-path="url(#clip0_5_101)">
<path d="M53.5 40C53.4996 39.1724 53.4243 38.3465 53.275 37.5325L57.8395 34.9L53.3395 27.1L48.7735 29.7385C47.5128 28.6599 46.0641 27.8229 44.5 27.2695V22H35.5V27.2695C33.9359 27.8229 32.4872 28.6599 31.2265 29.7385L26.6605 27.1L22.1605 34.9L26.725 37.5325C26.4252 39.1638 26.4252 40.8362 26.725 42.4675L22.1605 45.1L26.6605 52.9L31.2265 50.263C32.4873 51.3411 33.936 52.1775 35.5 52.7305V58H44.5V52.7305C46.0641 52.1771 47.5128 51.3401 48.7735 50.2615L53.3395 52.9L57.8395 45.1L53.275 42.4675C53.4243 41.6535 53.4996 40.8276 53.5 40ZM44.5 40C44.5 40.89 44.2361 41.76 43.7416 42.5001C43.2472 43.2401 42.5444 43.8169 41.7221 44.1575C40.8998 44.4981 39.995 44.5872 39.1221 44.4135C38.2492 44.2399 37.4474 43.8113 36.818 43.182C36.1887 42.5526 35.7601 41.7508 35.5865 40.8779C35.4129 40.005 35.502 39.1002 35.8426 38.2779C36.1832 37.4557 36.7599 36.7529 37.5 36.2584C38.24 35.7639 39.11 35.5 40 35.5C41.1935 35.5 42.3381 35.9741 43.182 36.818C44.0259 37.6619 44.5 38.8065 44.5 40Z" fill="#747474" fill-opacity="0.2"/>
</g>
<circle cx="40.1318" cy="40.1318" r="39.1318" stroke="#DCDCDC" stroke-width="2"/>
<defs>
<clipPath id="clip0_5_101">
<rect width="36" height="36" fill="white" transform="translate(22 22)"/>
</clipPath>
</defs>
</svg>
