<svg width="51" height="51" viewBox="0 0 51 51" fill="none" xmlns="http://www.w3.org/2000/svg">
<g clip-path="url(#clip0_4_392)">
<path d="M0 25.5C0 30.5434 1.49555 35.4736 4.29753 39.667C7.0995 43.8605 11.0821 47.1289 15.7416 49.0589C20.4011 50.989 25.5283 51.4939 30.4748 50.51C35.4213 49.5261 39.965 47.0975 43.5312 43.5312C47.0975 39.965 49.5261 35.4213 50.51 30.4748C51.4939 25.5283 50.989 20.4011 49.0589 15.7416C47.1289 11.0821 43.8605 7.0995 39.667 4.29753C35.4736 1.49555 30.5434 0 25.5 0C18.7392 0.0073123 12.2574 2.69626 7.47685 7.47685C2.69626 12.2574 0.0073123 18.7392 0 25.5ZM37.0048 22.4953C37.8015 23.2922 38.2491 24.3731 38.2491 25.5C38.2491 26.627 37.8015 27.7078 37.0048 28.5048L27.9884 37.5211L24.9836 34.5164L31.875 27.625H12.75V23.375H31.875L24.9836 16.4836L27.9884 13.4789L37.0048 22.4953Z" fill="white"/>
</g>
<defs>
<clipPath id="clip0_4_392">
<rect width="51" height="51" fill="white"/>
</clipPath>
</defs>
</svg>
