<svg width="51" height="51" viewBox="0 0 51 51" fill="none" xmlns="http://www.w3.org/2000/svg">
<g clip-path="url(#clip0_4_394)">
<path d="M51 25.5C51 20.4566 49.5044 15.5264 46.7025 11.333C43.9005 7.1395 39.9179 3.8711 35.2584 1.94107C30.5989 0.0110339 25.4717 -0.493948 20.5252 0.489974C15.5787 1.4739 11.035 3.90254 7.46877 7.46878C3.90253 11.035 1.47389 15.5787 0.489968 20.5252C-0.493952 25.4717 0.0110303 30.5989 1.94107 35.2584C3.8711 39.9179 7.1395 43.9005 11.333 46.7025C15.5264 49.5045 20.4566 51 25.5 51C32.2608 50.9927 38.7426 48.3037 43.5231 43.5231C48.3037 38.7426 50.9927 32.2608 51 25.5ZM13.9952 28.5048C13.1985 27.7078 12.7509 26.6269 12.7509 25.5C12.7509 24.3731 13.1985 23.2922 13.9952 22.4953L23.0116 13.4789L26.0164 16.4836L19.125 23.375L38.25 23.375L38.25 27.625L19.125 27.625L26.0164 34.5164L23.0116 37.5211L13.9952 28.5048Z" fill="white"/>
</g>
<defs>
<clipPath id="clip0_4_394">
<rect width="51" height="51" fill="white" transform="translate(51 51) rotate(180)"/>
</clipPath>
</defs>
</svg>
