<svg width="18" height="18" viewBox="0 0 18 18" fill="none" xmlns="http://www.w3.org/2000/svg">
<path d="M18 16.9395L13.3035 12.243C14.5235 10.7509 15.1233 8.84706 14.9789 6.92516C14.8345 5.00326 13.9569 3.21039 12.5277 1.91738C11.0985 0.624372 9.22696 -0.0698417 7.30025 -0.0216679C5.37354 0.026506 3.53905 0.813381 2.17623 2.1762C0.813412 3.53902 0.0265365 5.37351 -0.0216374 7.30022C-0.0698112 9.22693 0.624402 11.0985 1.91741 12.5277C3.21042 13.9569 5.00329 14.8345 6.92519 14.9789C8.84709 15.1233 10.751 14.5235 12.243 13.3035L16.9395 18L18 16.9395ZM7.50002 13.5C6.31333 13.5 5.15329 13.1481 4.1666 12.4888C3.1799 11.8295 2.41087 10.8924 1.95674 9.79609C1.50262 8.69973 1.3838 7.49333 1.61531 6.32945C1.84682 5.16556 2.41826 4.09646 3.25738 3.25735C4.09649 2.41823 5.16559 1.84679 6.32948 1.61528C7.49336 1.38377 8.69976 1.50259 9.79612 1.95671C10.8925 2.41084 11.8295 3.17987 12.4888 4.16657C13.1481 5.15326 13.5 6.3133 13.5 7.49999C13.4982 9.09074 12.8655 10.6158 11.7407 11.7407C10.6159 12.8655 9.09077 13.4982 7.50002 13.5Z" fill="#D8D8D8"/>
</svg>
