<svg width="28" height="28" viewBox="0 0 28 28" fill="none" xmlns="http://www.w3.org/2000/svg">
<g clip-path="url(#clip0_265_2269)">
<path d="M26.9722 1.01733C26.6075 0.653554 26.1667 0.375188 25.6815 0.202296C25.1963 0.0294035 24.6788 -0.0337109 24.1663 0.0175003C20.9078 0.3325 9.94932 1.68933 5.71666 5.91733C3.69339 7.94611 2.49362 10.6526 2.34904 13.5142C2.20446 16.3758 3.12534 19.1895 4.93382 21.4118L17.8372 8.5085C18.0572 8.29598 18.3519 8.17839 18.6578 8.18105C18.9637 8.18371 19.2563 8.3064 19.4726 8.52271C19.6889 8.73902 19.8116 9.03164 19.8143 9.33753C19.8169 9.64343 19.6993 9.93813 19.4868 10.1582L6.58816 23.0615C8.80975 24.8711 11.6232 25.7931 14.4849 25.6494C17.3466 25.5056 20.0535 24.3064 22.0827 22.2833C26.3713 17.9935 27.6827 7.06883 27.9848 3.82317C28.0342 3.30968 27.969 2.79164 27.7939 2.30642C27.6188 1.8212 27.3381 1.38091 26.9722 1.01733ZM5.71666 22.2833C5.9951 22.561 6.28404 22.8219 6.58349 23.0662L1.98682 27.6628C1.7662 27.8748 1.47114 27.9916 1.1652 27.9882C0.85927 27.9847 0.566949 27.8611 0.351219 27.6442C0.13549 27.4272 0.0136177 27.1342 0.0118601 26.8283C0.0101025 26.5223 0.1286 26.2279 0.341823 26.0085L4.93849 21.4118C5.18271 21.7105 5.4421 22.001 5.71666 22.2833Z" fill="#F8BA00"/>
</g>
<defs>
<clipPath id="clip0_265_2269">
<rect width="28" height="28" fill="white"/>
</clipPath>
</defs>
</svg>
