<svg width="8" height="15" viewBox="0 0 8 15" fill="none" xmlns="http://www.w3.org/2000/svg">
<path d="M3.91414 14.7555H2.15093L3.0676 9.83702H1.17331C0.990236 9.83692 0.809722 9.77938 0.646189 9.669C0.482655 9.55862 0.340636 9.39846 0.231479 9.20131C0.122323 9.00417 0.0490555 8.77551 0.0175325 8.53361C-0.0139906 8.29171 -0.00289558 8.04326 0.0499308 7.80814L1.81039 0H6.14943L4.77443 4.91851H6.61831C6.82809 4.91869 7.03393 4.99512 7.21392 5.13967C7.39392 5.28422 7.54135 5.4915 7.64054 5.73947C7.73974 5.98743 7.78699 6.26682 7.77728 6.54793C7.76757 6.82904 7.70126 7.10136 7.58539 7.33596L3.91414 14.7555Z" fill="white" fill-opacity="0.5"/>
</svg>
