<svg width="409" height="11" viewBox="0 0 409 11" fill="none" xmlns="http://www.w3.org/2000/svg">
<path d="M0.666667 5.5C0.666666 8.44552 3.05448 10.8333 6 10.8333C8.94552 10.8333 11.3333 8.44552 11.3333 5.5C11.3333 2.55448 8.94552 0.166667 6 0.166667C3.05448 0.166666 0.666667 2.55448 0.666667 5.5ZM397.667 5.50003C397.667 8.44555 400.054 10.8334 403 10.8334C405.946 10.8334 408.333 8.44555 408.333 5.50004C408.333 2.55452 405.946 0.166701 403 0.166701C400.054 0.166701 397.667 2.55452 397.667 5.50003ZM6 6.5L403 6.50003L403 4.50003L6 4.5L6 6.5Z" fill="#E1AA00"/>
</svg>
