<svg width="20" height="20" viewBox="0 0 20 20" fill="none" xmlns="http://www.w3.org/2000/svg">
<g clip-path="url(#clip0_257_1418)">
<path d="M19.9617 4.61833L12.9467 11.6333C12.1645 12.4135 11.1048 12.8517 10 12.8517C8.89521 12.8517 7.83552 12.4135 7.05333 11.6333L0.0383333 4.61833C0.0266667 4.75 0 4.86917 0 5V15C0.00132321 16.1047 0.440735 17.1637 1.22185 17.9448C2.00296 18.7259 3.062 19.1653 4.16667 19.1667H15.8333C16.938 19.1653 17.997 18.7259 18.7782 17.9448C19.5593 17.1637 19.9987 16.1047 20 15V5C20 4.86917 19.9733 4.75 19.9617 4.61833Z" fill="#FF2C2C"/>
<path d="M11.7675 10.455L19.3791 2.8425C19.0104 2.2311 18.4903 1.72503 17.8691 1.37311C17.2479 1.02118 16.5465 0.835283 15.8325 0.833332H4.16581C3.45183 0.835283 2.75039 1.02118 2.12916 1.37311C1.50793 1.72503 0.987873 2.2311 0.619141 2.8425L8.23081 10.455C8.70045 10.9228 9.33629 11.1854 9.99914 11.1854C10.662 11.1854 11.2978 10.9228 11.7675 10.455Z" fill="#FF2C2C"/>
</g>
<defs>
<clipPath id="clip0_257_1418">
<rect width="20" height="20" fill="white"/>
</clipPath>
</defs>
</svg>
