<svg width="264" height="264" viewBox="0 0 264 264" fill="none" xmlns="http://www.w3.org/2000/svg">
<g filter="url(#filter0_d_553_3907)">
<rect x="100" y="100" width="64" height="64" rx="5" fill="white" shape-rendering="crispEdges"/>
<path d="M128 142.503C128 142.104 128.161 141.723 128.446 141.441L136.22 133.761C136.456 133.528 136.642 133.252 136.77 132.949C136.897 132.645 136.963 132.319 136.963 131.991C136.963 131.662 136.897 131.336 136.77 131.033C136.642 130.729 136.456 130.453 136.22 130.221L128.456 122.545C128.179 122.262 128.026 121.882 128.029 121.489C128.033 121.095 128.193 120.718 128.475 120.44C128.756 120.161 129.138 120.003 129.536 120C129.935 119.997 130.319 120.148 130.605 120.422L138.37 128.091C139.414 129.125 140 130.525 140 131.985C140 133.445 139.414 134.846 138.37 135.879L130.595 143.56C130.383 143.77 130.112 143.913 129.818 143.971C129.524 144.029 129.218 144 128.941 143.887C128.663 143.774 128.425 143.582 128.258 143.335C128.091 143.089 128.001 142.799 128 142.503Z" fill="#637388"/>
</g>
<defs>
<filter id="filter0_d_553_3907" x="0" y="0" width="264" height="264" filterUnits="userSpaceOnUse" color-interpolation-filters="sRGB">
<feFlood flood-opacity="0" result="BackgroundImageFix"/>
<feColorMatrix in="SourceAlpha" type="matrix" values="0 0 0 0 0 0 0 0 0 0 0 0 0 0 0 0 0 0 127 0" result="hardAlpha"/>
<feOffset/>
<feGaussianBlur stdDeviation="50"/>
<feComposite in2="hardAlpha" operator="out"/>
<feColorMatrix type="matrix" values="0 0 0 0 0 0 0 0 0 0 0 0 0 0 0 0 0 0 0.05 0"/>
<feBlend mode="normal" in2="BackgroundImageFix" result="effect1_dropShadow_553_3907"/>
<feBlend mode="normal" in="SourceGraphic" in2="effect1_dropShadow_553_3907" result="shape"/>
</filter>
</defs>
</svg>
