<svg width="14" height="15" viewBox="0 0 14 15" fill="none" xmlns="http://www.w3.org/2000/svg">
<path d="M12.8333 6.33333H8.16667V1.66667C8.16667 1.35725 8.04375 1.0605 7.82496 0.841709C7.60616 0.622917 7.30942 0.5 7 0.5C6.69058 0.5 6.39383 0.622917 6.17504 0.841709C5.95625 1.0605 5.83333 1.35725 5.83333 1.66667V6.33333H1.16667C0.857247 6.33333 0.560501 6.45625 0.341709 6.67504C0.122917 6.89383 0 7.19058 0 7.5C0 7.80942 0.122917 8.10616 0.341709 8.32496C0.560501 8.54375 0.857247 8.66667 1.16667 8.66667H5.83333V13.3333C5.83333 13.6428 5.95625 13.9395 6.17504 14.1583C6.39383 14.3771 6.69058 14.5 7 14.5C7.30942 14.5 7.60616 14.3771 7.82496 14.1583C8.04375 13.9395 8.16667 13.6428 8.16667 13.3333V8.66667H12.8333C13.1428 8.66667 13.4395 8.54375 13.6583 8.32496C13.8771 8.10616 14 7.80942 14 7.5C14 7.19058 13.8771 6.89383 13.6583 6.67504C13.4395 6.45625 13.1428 6.33333 12.8333 6.33333Z" fill="white"/>
</svg>
