<svg width="26" height="26" viewBox="0 0 26 26" fill="none" xmlns="http://www.w3.org/2000/svg">
<g clip-path="url(#clip0_5_171)">
<path d="M4.33333 4.33333C5.52825 4.33333 6.5 3.36158 6.5 2.16667C6.5 0.97175 5.52825 0 4.33333 0C3.13842 0 2.16667 0.97175 2.16667 2.16667C2.16667 3.36158 3.13842 4.33333 4.33333 4.33333ZM4.33333 1.08333C4.93133 1.08333 5.41667 1.56975 5.41667 2.16667C5.41667 2.76358 4.93133 3.25 4.33333 3.25C3.73533 3.25 3.25 2.76358 3.25 2.16667C3.25 1.56975 3.73533 1.08333 4.33333 1.08333ZM9.75 5.41667C10.9449 5.41667 11.9167 4.44492 11.9167 3.25C11.9167 2.05508 10.9449 1.08333 9.75 1.08333C8.55508 1.08333 7.58333 2.05508 7.58333 3.25C7.58333 4.44492 8.55508 5.41667 9.75 5.41667ZM9.75 2.16667C10.348 2.16667 10.8333 2.65308 10.8333 3.25C10.8333 3.84692 10.348 4.33333 9.75 4.33333C9.152 4.33333 8.66667 3.84692 8.66667 3.25C8.66667 2.65308 9.152 2.16667 9.75 2.16667ZM15.1667 4.33333C16.3616 4.33333 17.3333 3.36158 17.3333 2.16667C17.3333 0.97175 16.3616 0 15.1667 0C13.9717 0 13 0.97175 13 2.16667C13 3.36158 13.9717 4.33333 15.1667 4.33333ZM15.1667 1.08333C15.7647 1.08333 16.25 1.56975 16.25 2.16667C16.25 2.76358 15.7647 3.25 15.1667 3.25C14.5687 3.25 14.0833 2.76358 14.0833 2.16667C14.0833 1.56975 14.5687 1.08333 15.1667 1.08333ZM6.56717 9.09783C6.87808 7.592 8.24092 6.5 9.80525 6.5C11.3696 6.5 12.7302 7.59308 13.0433 9.09783C13.1051 9.39033 12.9686 9.75 12.5125 9.75C12.2622 9.75 12.0369 9.5745 11.9838 9.31883C11.7747 8.3135 10.8582 7.58333 9.80525 7.58333C8.75225 7.58333 7.83575 8.31242 7.62667 9.31883C7.566 9.61242 7.27567 9.7955 6.98642 9.73917C6.69283 9.6785 6.50542 9.39142 6.56608 9.09892L6.56717 9.09783ZM15.1667 5.41667C16.731 5.41667 18.0938 6.50975 18.4047 8.0145C18.4665 8.30808 18.2812 8.67642 17.8739 8.66667C17.6237 8.66017 17.3983 8.49008 17.3452 8.2355C17.1372 7.23017 16.2207 6.5 15.1667 6.5C14.8633 6.5 14.5687 6.5585 14.2913 6.67442C14.0194 6.79033 13.6977 6.65925 13.5828 6.383C13.4691 6.10675 13.5991 5.79042 13.8753 5.6745C14.2848 5.50333 14.7192 5.41667 15.1667 5.41667ZM1.09525 8.0145C1.40617 6.50867 2.769 5.41667 4.33333 5.41667C4.78075 5.41667 5.21517 5.50333 5.62467 5.6745C5.90092 5.78933 6.03092 6.10675 5.91717 6.383C5.80233 6.65925 5.48058 6.78925 5.20867 6.67442C4.93133 6.55958 4.63775 6.5 4.33333 6.5C3.27925 6.5 2.36383 7.22908 2.15475 8.2355C2.10167 8.49117 1.87417 8.70242 1.62608 8.66667C1.18733 8.60383 1.0335 8.30808 1.09525 8.0145ZM25.1127 10.4585C24.5754 9.96883 23.8767 9.72833 23.153 9.75217C22.4272 9.78683 21.7577 10.101 21.2691 10.6383L17.2261 15.0822C16.8859 13.8818 15.7798 13 14.4712 13H3.79167C1.70083 13 0 14.7008 0 16.7917V22.2083C0 24.2992 1.70083 26 3.79167 26H10.2537C13.1863 26 15.9867 24.7444 17.9378 22.5539L25.311 14.2783C26.2979 13.1712 26.2091 11.4573 25.1127 10.4585ZM24.5028 13.5579L17.1297 21.8335C15.3844 23.7933 12.8776 24.9167 10.2537 24.9167H3.79167C2.29775 24.9167 1.08333 23.7012 1.08333 22.2083V16.7917C1.08333 15.2988 2.29775 14.0833 3.79167 14.0833H14.4701C15.4505 14.0833 16.25 14.8818 16.25 15.8622C16.25 16.7418 15.5935 17.4991 14.7355 17.6215L8.06108 18.4199C7.76425 18.4557 7.55192 18.7254 7.58767 19.0223C7.62233 19.3191 7.89317 19.5249 8.19 19.4957L14.8774 18.6951C15.9835 18.5369 16.8751 17.7439 17.2012 16.7191L22.0718 11.3674C22.3654 11.0446 22.7684 10.855 23.205 10.8344C23.6362 10.8149 24.0597 10.9644 24.3837 11.2602C25.0434 11.8614 25.0965 12.8906 24.5028 13.5579Z" fill="white"/>
</g>
<defs>
<clipPath id="clip0_5_171">
<rect width="26" height="26" fill="white"/>
</clipPath>
</defs>
</svg>
