<svg width="26" height="26" viewBox="0 0 26 26" fill="none" xmlns="http://www.w3.org/2000/svg">
<path d="M12.9995 10.8334C11.8046 10.8334 10.8328 11.8051 10.8328 13.0001C10.8328 14.195 11.8046 15.1667 12.9995 15.1667C14.1944 15.1667 15.1662 14.195 15.1662 13.0001C15.1662 11.8051 14.1944 10.8334 12.9995 10.8334ZM12.9995 14.0834C12.4026 14.0834 11.9162 13.597 11.9162 13.0001C11.9162 12.4031 12.4026 11.9167 12.9995 11.9167C13.5964 11.9167 14.0828 12.4031 14.0828 13.0001C14.0828 13.597 13.5964 14.0834 12.9995 14.0834ZM19.7162 10.4087C19.8278 9.98838 19.7671 9.55071 19.5483 9.17696C19.3294 8.80212 18.9784 8.53454 18.5581 8.42404C18.1399 8.31354 17.7023 8.37421 17.3264 8.59196L16.6309 8.99713C16.0491 8.46846 15.3677 8.0752 14.6234 7.8412V7.0417C14.6234 6.14578 13.8943 5.41669 12.9984 5.41669C12.1025 5.41669 11.3734 6.14578 11.3734 7.0417V7.8412C10.6292 8.0752 9.94773 8.46954 9.36598 8.99821L8.67156 8.59304C8.29673 8.37421 7.85906 8.31462 7.43872 8.42512C7.01947 8.53562 6.66739 8.80321 6.44855 9.17696C6.22972 9.5518 6.17013 9.98946 6.27955 10.4087C6.38897 10.828 6.65764 11.1811 7.03247 11.4L7.73231 11.8084C7.63047 12.2255 7.58064 12.6187 7.58064 13.0011C7.58064 13.3836 7.63047 13.7757 7.73231 14.1928L7.03247 14.6012C6.65764 14.8201 6.39005 15.1722 6.27955 15.5925C6.16905 16.0128 6.22972 16.4505 6.44855 16.8242C6.66739 17.1991 7.01839 17.4667 7.43872 17.5772C7.85906 17.6866 8.29673 17.6281 8.67048 17.4082L9.3649 17.003C9.94665 17.5328 10.6292 17.926 11.3723 18.16V18.9595C11.3723 19.8554 12.1014 20.5845 12.9973 20.5845C13.8933 20.5845 14.6223 19.8554 14.6223 18.9595V18.16C15.3666 17.926 16.048 17.5328 16.6298 17.003L17.3242 17.4082C17.7012 17.627 18.1389 17.6866 18.557 17.5772C18.9774 17.4667 19.3284 17.1991 19.5472 16.8242C19.766 16.4494 19.8267 16.0117 19.7151 15.5925C19.6046 15.1722 19.3381 14.8212 18.9633 14.6023L18.2634 14.1939C18.3653 13.7779 18.4151 13.3846 18.4151 13.0022C18.4151 12.6198 18.3653 12.2266 18.2634 11.8095L18.9633 11.4021C19.3392 11.1833 19.6057 10.8312 19.7151 10.4109L19.7162 10.4087ZM18.6686 10.1335C18.6318 10.2733 18.5429 10.3903 18.4184 10.4629L17.3578 11.0815C17.14 11.2093 17.0382 11.4704 17.114 11.712C17.2635 12.1876 17.3329 12.5971 17.3329 12.999C17.3329 13.4009 17.2635 13.8104 17.114 14.2849C17.0382 14.5265 17.1379 14.7876 17.3578 14.9154L18.4184 15.5351C18.5429 15.6077 18.6318 15.7247 18.6686 15.8644C18.7054 16.0042 18.6859 16.1504 18.6123 16.275C18.5397 16.3996 18.4216 16.4895 18.2819 16.5252C18.1443 16.5632 17.998 16.5437 17.8713 16.4689L16.8183 15.8547C16.6038 15.7279 16.3232 15.7669 16.1509 15.9522C15.5551 16.587 14.7978 17.0236 13.9615 17.2142C13.7145 17.2706 13.5401 17.4894 13.5401 17.7418V18.9552C13.5401 19.2542 13.2974 19.4968 12.9984 19.4968C12.6994 19.4968 12.4567 19.2542 12.4567 18.9552V17.7418C12.4567 17.4894 12.2823 17.2695 12.0353 17.2142C11.1979 17.0236 10.4407 16.587 9.8459 15.9522C9.74082 15.8395 9.59673 15.781 9.45048 15.781C9.35732 15.781 9.26307 15.8048 9.17748 15.8547L8.12556 16.4689C8.00206 16.5415 7.85473 16.5621 7.71497 16.5252C7.57522 16.4884 7.45822 16.3996 7.38456 16.2739C7.31197 16.1493 7.29139 16.0031 7.32822 15.8644C7.36506 15.7247 7.45389 15.6066 7.57847 15.534L8.63906 14.9143C8.8579 14.7865 8.95865 14.5254 8.88281 14.2838C8.73331 13.8082 8.66398 13.3987 8.66398 12.9968C8.66398 12.5949 8.73331 12.1865 8.88281 11.7098C8.95865 11.4682 8.8579 11.2071 8.63906 11.0804L7.57847 10.4618C7.45389 10.3892 7.36397 10.2711 7.32822 10.1314C7.29139 9.99163 7.31089 9.84646 7.38456 9.7208C7.45714 9.59621 7.57522 9.5063 7.71497 9.47054C7.85364 9.43263 8.00098 9.45321 8.12556 9.5258L9.17748 10.14C9.39523 10.2668 9.67257 10.2278 9.8459 10.0436C10.4407 9.4088 11.199 8.97221 12.0353 8.78154C12.2823 8.72521 12.4567 8.50637 12.4567 8.25396V7.04062C12.4567 6.74162 12.6994 6.49895 12.9984 6.49895C13.2974 6.49895 13.5401 6.74162 13.5401 7.04062V8.25396C13.5401 8.50637 13.7145 8.72629 13.9615 8.78154C14.7978 8.97221 15.5562 9.4088 16.1509 10.0436C16.3232 10.2278 16.6038 10.2679 16.8183 10.14L17.8713 9.5258C17.9948 9.4543 18.1378 9.43263 18.2819 9.47054C18.4216 9.50738 18.5386 9.59621 18.6123 9.7208C18.6849 9.84646 18.7054 9.99163 18.6686 10.1314V10.1335ZM25.9996 13.5645C25.7016 20.5379 19.9903 26.0001 12.9995 26.0001C9.22732 26.0001 5.73571 24.3925 3.2657 21.5866C3.26354 21.6148 3.24945 21.6386 3.24945 21.6668V25.4585C3.24945 25.7575 3.00679 26.0001 2.70778 26.0001C2.40878 26.0001 2.16611 25.7575 2.16611 25.4585V21.6668C2.16611 21.1619 2.34595 20.7037 2.63628 20.3353C2.67203 20.2671 2.71862 20.2043 2.78362 20.1544C2.78362 20.1544 2.78578 20.1544 2.78687 20.1523C3.18012 19.7503 3.72721 19.5001 4.33279 19.5001H8.12448C8.42348 19.5001 8.66615 19.7428 8.66615 20.0418C8.66615 20.3408 8.42348 20.5834 8.12448 20.5834H4.33279C4.18112 20.5834 4.03704 20.6159 3.90596 20.6733C6.1788 23.3687 9.45373 24.9168 12.9995 24.9168C19.4085 24.9168 24.6432 19.9096 24.9162 13.519C24.9292 13.2211 25.1416 12.9795 25.4806 13.0011C25.7786 13.0141 26.0115 13.2666 25.9996 13.5656V13.5645ZM1.08278 12.4811C1.07086 12.7726 0.830358 13.0001 0.54219 13.0001C0.534607 13.0001 0.52594 13.0001 0.518357 13.0001C0.219355 12.9871 -0.012479 12.7346 0.000521075 12.4356C0.298439 5.46219 6.00763 0 12.9995 0C16.7717 0 20.2633 1.60767 22.7333 4.41352C22.7355 4.38535 22.7495 4.36152 22.7495 4.33335V0.541669C22.7495 0.242668 22.9922 0 23.2912 0C23.5902 0 23.8329 0.242668 23.8329 0.541669V4.33335C23.8329 4.83819 23.652 5.29644 23.3627 5.66478C23.327 5.73303 23.2804 5.79586 23.2154 5.84569C23.2154 5.84569 23.2132 5.84569 23.2121 5.84786C22.8189 6.2487 22.2718 6.50003 21.6673 6.50003H17.8756C17.5766 6.50003 17.3339 6.25736 17.3339 5.95836C17.3339 5.65936 17.5766 5.41669 17.8756 5.41669H21.6673C21.819 5.41669 21.963 5.38419 22.0952 5.32786C19.8234 2.63251 16.5474 1.08334 13.0006 1.08334C6.59047 1.08334 1.35578 6.09053 1.08278 12.4811Z" fill="white"/>
</svg>
