<svg width="26" height="26" viewBox="0 0 26 26" fill="none" xmlns="http://www.w3.org/2000/svg">
<g clip-path="url(#clip0_5_130)">
<path d="M25.1799 14.9792L22.75 17.4091V20.0416C22.75 21.5356 21.5356 22.75 20.0417 22.75H17.4092L14.9792 25.1799C14.4332 25.7259 13.7172 25.9989 13 25.9989C12.2828 25.9989 11.5667 25.7259 11.0207 25.1799L8.59083 22.75H5.95833C4.46441 22.75 3.25 21.5356 3.25 20.0416V17.4091L0.82008 14.9792C-0.270837 13.8883 -0.270837 12.1116 0.82008 11.0207L3.25 8.59081V5.95831C3.25 4.46547 4.46441 3.24997 5.95833 3.24997H8.59083L11.0207 0.820058C12.077 -0.238359 13.9241 -0.238359 14.9792 0.820058L17.4092 3.24997H20.0417C20.5172 3.24997 20.9852 3.37564 21.3958 3.61181C21.6547 3.76131 21.7436 4.09281 21.5941 4.35172C21.4446 4.61281 21.1109 4.70056 20.8542 4.54997C20.6072 4.40806 20.3277 4.33222 20.0417 4.33222H17.1849C17.0408 4.33222 16.9032 4.27481 16.8014 4.17406L14.2122 1.58489C13.5644 0.935974 12.4323 0.935974 11.7856 1.58489L9.19641 4.17406C9.09458 4.27589 8.957 4.33222 8.81291 4.33222H5.95616C5.06025 4.33222 4.33116 5.06131 4.33116 5.95722V8.81397C4.33116 8.95806 4.27375 9.09564 4.173 9.19747L1.58383 11.7866C0.915413 12.4561 0.915413 13.5449 1.58383 14.2133L4.173 16.8025C4.27483 16.9043 4.33116 17.0419 4.33116 17.186V20.0427C4.33116 20.9386 5.06025 21.6677 5.95616 21.6677H8.81291C8.957 21.6677 9.09458 21.7251 9.19641 21.8259L11.7856 24.4151C12.4334 25.0629 13.5655 25.0629 14.2122 24.4151L16.8014 21.8259C16.9032 21.7241 17.0408 21.6677 17.1849 21.6677H20.0417C20.9376 21.6677 21.6667 20.9386 21.6667 20.0427V17.186C21.6667 17.0419 21.7241 16.9043 21.8248 16.8025L24.414 14.2133C25.0824 13.5438 25.0824 12.4551 24.414 11.7866L23.4498 10.8225C23.2386 10.6112 23.2386 10.2678 23.4498 10.0566C23.6611 9.84531 24.0045 9.84531 24.2157 10.0566L25.1799 11.0207C26.2708 12.1116 26.2708 13.8883 25.1799 14.9792ZM11.7856 14.6466L8.50633 11.4021C8.29291 11.1919 7.9495 11.193 7.74041 11.4064C7.53025 11.6187 7.53241 11.9621 7.74475 12.1723L11.024 15.4169C11.583 15.9705 12.3153 16.2467 13.0487 16.2467C13.7822 16.2467 14.5188 15.9683 15.0778 15.4126L24.7574 5.79581C24.9687 5.58564 24.9708 5.24222 24.7596 5.02989C24.5505 4.81864 24.2071 4.81539 23.9937 5.02772L14.3141 14.6445C13.6197 15.3346 12.4854 15.3389 11.7856 14.6466Z" fill="white"/>
</g>
<defs>
<clipPath id="clip0_5_130">
<rect width="26" height="26" fill="white"/>
</clipPath>
</defs>
</svg>
