<svg width="47" height="47" viewBox="0 0 47 47" fill="none" xmlns="http://www.w3.org/2000/svg">
<g clip-path="url(#clip0_5_323)">
<path d="M39.1667 15.6667C34.8387 15.6667 31.3333 12.1613 31.3333 7.83333C31.3333 3.50542 34.8387 0 39.1667 0C43.4946 0 47 3.50542 47 7.83333C47 12.1613 43.4946 15.6667 39.1667 15.6667ZM19.3483 27.6517C21.6396 29.9429 25.3604 29.9429 27.6517 27.6517L36.1313 19.1721C31.1179 17.8404 27.4167 13.2775 27.4167 7.83333C27.4167 7.1675 27.495 6.52125 27.5929 5.875H5.875C3.62292 5.875 1.70375 7.14792 0.705 9.00833L19.3483 27.6517ZM41.4971 19.3483L30.4325 30.4129C28.5329 32.3125 26.0067 33.2721 23.5 33.2721C20.9933 33.2721 18.4867 32.3125 16.5675 30.4129L0 13.8454V47H47V16.5675C45.4725 17.9383 43.5925 18.9175 41.4971 19.3483Z" fill="black" fill-opacity="0.1"/>
</g>
<defs>
<clipPath id="clip0_5_323">
<rect width="47" height="47" fill="white"/>
</clipPath>
</defs>
</svg>
