<svg width="31" height="31" viewBox="0 0 31 31" fill="none" xmlns="http://www.w3.org/2000/svg">
<path d="M15.2208 0.149536C6.81457 0.149536 0 6.85305 0 15.1223C0 23.3915 6.81457 30.095 15.2208 30.095C23.627 30.095 30.4416 23.3915 30.4416 15.1223C30.4416 6.85305 23.627 0.149536 15.2208 0.149536ZM23.132 9.62072L20.4286 22.3162C20.3959 22.4697 20.3245 22.6127 20.2209 22.7321C20.1174 22.8514 19.985 22.9432 19.836 22.999C19.6869 23.0549 19.526 23.073 19.368 23.0517C19.21 23.0305 19.06 22.9705 18.9317 22.8772L14.9995 20.0195L12.6172 22.2303C12.586 22.2593 12.5493 22.2818 12.5091 22.2966C12.469 22.3115 12.4263 22.3183 12.3834 22.3167C12.3406 22.3151 12.2985 22.3051 12.2596 22.2873C12.2208 22.2695 12.1859 22.2443 12.157 22.2131L12.1058 22.1578L12.5197 18.2172L19.9805 11.5116C20.0174 11.4785 20.0404 11.433 20.0449 11.3841C20.0493 11.3351 20.035 11.2863 20.0047 11.2473C19.9744 11.2083 19.9303 11.1818 19.8811 11.1732C19.8319 11.1645 19.7813 11.1743 19.7391 11.2006L10.1976 17.1412L6.08831 15.7836C5.97905 15.7475 5.88382 15.679 5.81569 15.5875C5.74756 15.4961 5.70986 15.3861 5.70778 15.2727C5.7057 15.1594 5.73932 15.0481 5.80405 14.9543C5.86877 14.8605 5.96142 14.7887 6.06929 14.7487L22.1474 8.79067C22.2715 8.74476 22.4057 8.73246 22.5362 8.75507C22.6668 8.77768 22.7887 8.83436 22.8893 8.91919C22.9899 9.00402 23.0655 9.11389 23.1082 9.23729C23.1509 9.3607 23.1591 9.49313 23.132 9.62072Z" fill="#FF2C2C"/>
</svg>
