<svg width="28" height="27" viewBox="0 0 28 27" fill="none" xmlns="http://www.w3.org/2000/svg">
<path fill-rule="evenodd" clip-rule="evenodd" d="M13.8057 0C21.2565 0 27.3057 5.95057 27.3057 13.28C27.3057 20.6094 21.2565 26.56 13.8057 26.56C6.35482 26.56 0.305664 20.6094 0.305664 13.28C0.305664 5.95057 6.35482 0 13.8057 0ZM13.8057 4.97999C11.5142 4.97999 11.2268 4.98954 10.3269 5.02995C9.42882 5.07026 8.81546 5.21058 8.27873 5.41574C7.72391 5.62786 7.25337 5.91167 6.78429 6.37309C6.31522 6.83452 6.02671 7.2974 5.81108 7.84318C5.60252 8.37111 5.45992 8.97447 5.41889 9.8579C5.37787 10.7432 5.36816 11.0259 5.36816 13.28C5.36816 15.5341 5.37787 15.8168 5.41889 16.7021C5.45992 17.5855 5.60252 18.1889 5.81108 18.7168C6.02671 19.2626 6.31522 19.7254 6.78429 20.1869C7.25337 20.6483 7.72391 20.9322 8.27873 21.1443C8.81546 21.3494 9.42882 21.4897 10.3269 21.53C11.2268 21.5704 11.5142 21.58 13.8057 21.58C16.0971 21.58 16.3845 21.5704 17.2844 21.53C18.1825 21.4897 18.7959 21.3494 19.3325 21.1443C19.8874 20.9322 20.3579 20.6483 20.827 20.1869C21.2961 19.7254 21.5846 19.2626 21.8002 18.7168C22.0088 18.1889 22.1514 17.5855 22.1924 16.7021C22.2335 15.8168 22.2432 15.5341 22.2432 13.28C22.2432 11.0259 22.2335 10.7432 22.1924 9.8579C22.1514 8.97447 22.0088 8.37111 21.8002 7.84318C21.5846 7.2974 21.2961 6.83452 20.827 6.37309C20.3579 5.91167 19.8874 5.62786 19.3325 5.41574C18.7959 5.21058 18.1825 5.07026 17.2844 5.02995C16.3845 4.98954 16.0971 4.97999 13.8057 4.97999ZM13.8057 6.4755C16.0586 6.4755 16.3254 6.48395 17.2152 6.52389C18.0378 6.56083 18.4845 6.69602 18.7818 6.80967C19.1757 6.96021 19.4568 7.14012 19.752 7.43056C20.0473 7.72096 20.2301 7.99751 20.3832 8.38491C20.4987 8.67738 20.6362 9.11681 20.6737 9.92606C20.7143 10.8013 20.7229 11.0638 20.7229 13.28C20.7229 15.4962 20.7143 15.7587 20.6737 16.6339C20.6362 17.4432 20.4987 17.8826 20.3832 18.1751C20.2301 18.5625 20.0473 18.839 19.752 19.1294C19.4568 19.4199 19.1757 19.5997 18.7818 19.7503C18.4845 19.8639 18.0378 19.9992 17.2152 20.0361C16.3256 20.076 16.0587 20.0845 13.8057 20.0845C11.5526 20.0845 11.2858 20.076 10.3962 20.0361C9.57352 19.9992 9.12681 19.8639 8.82949 19.7503C8.43562 19.5997 8.15454 19.4199 7.85928 19.1294C7.56402 18.839 7.38119 18.5625 7.22816 18.1751C7.11262 17.8826 6.97514 17.4432 6.93759 16.6339C6.89699 15.7587 6.88844 15.4962 6.88844 13.28C6.88844 11.0638 6.89699 10.8013 6.93759 9.92606C6.97514 9.11681 7.11262 8.67738 7.22816 8.38491C7.38119 7.99751 7.56402 7.72096 7.85928 7.43056C8.15454 7.14012 8.43562 6.96021 8.82949 6.80967C9.12681 6.69602 9.57352 6.56083 10.3962 6.52389C11.2859 6.48395 11.5527 6.4755 13.8057 6.4755ZM13.8057 9.01783C11.4127 9.01783 9.4729 10.9261 9.4729 13.28C9.4729 15.6339 11.4127 17.5421 13.8057 17.5421C16.1986 17.5421 18.1384 15.6339 18.1384 13.28C18.1384 10.9261 16.1986 9.01783 13.8057 9.01783ZM13.8057 16.0466C12.2524 16.0466 10.9932 14.808 10.9932 13.28C10.9932 11.752 12.2524 10.5133 13.8057 10.5133C15.359 10.5133 16.6181 11.752 16.6181 13.28C16.6181 14.808 15.359 16.0466 13.8057 16.0466ZM19.3222 8.84945C19.3222 9.39953 18.8688 9.84539 18.3096 9.84539C17.7505 9.84539 17.2972 9.39953 17.2972 8.84945C17.2972 8.29937 17.7505 7.85345 18.3096 7.85345C18.8688 7.85345 19.3222 8.29937 19.3222 8.84945Z" fill="white"/>
</svg>
