<svg width="31" height="31" viewBox="0 0 31 31" fill="none" xmlns="http://www.w3.org/2000/svg">
<g clip-path="url(#clip0_206_1880)">
<path fill-rule="evenodd" clip-rule="evenodd" d="M15.7286 30.5911C24.1348 30.5911 30.9494 23.7765 30.9494 15.3703C30.9494 6.96413 24.1348 0.149536 15.7286 0.149536C7.3224 0.149536 0.507812 6.96413 0.507812 15.3703C0.507812 23.7765 7.3224 30.5911 15.7286 30.5911ZM16.7731 8.06879C16.0071 8.09013 15.1989 8.27451 14.628 8.81695C14.1565 9.25306 13.919 9.8878 13.8656 10.5223C13.8494 10.9761 13.8517 11.4311 13.854 11.886C13.8558 12.227 13.8575 12.5681 13.8514 12.9084C13.6417 12.9099 13.4314 12.9095 13.221 12.909C12.9404 12.9085 12.6596 12.9079 12.38 12.912C12.38 13.1835 12.3804 13.4555 12.3808 13.7277C12.3816 14.2729 12.3824 14.8191 12.38 15.3654C12.6596 15.3695 12.9404 15.3689 13.221 15.3683C13.4314 15.3679 13.6417 15.3675 13.8514 15.369C13.8561 16.4516 13.8553 17.5342 13.8544 18.6168C13.8533 19.97 13.8522 21.3231 13.8621 22.6763C14.4375 22.6722 15.0117 22.6728 15.5861 22.6734C16.0169 22.6738 16.4478 22.6743 16.8794 22.6727C16.8829 21.4548 16.882 20.2378 16.8811 19.0209C16.8802 17.8039 16.8794 16.5869 16.8829 15.369C17.1731 15.3675 17.4633 15.3679 17.7535 15.3683C18.1405 15.3689 18.5275 15.3695 18.9145 15.3654C19.035 14.5499 19.1378 13.7272 19.1945 12.9013C18.8117 12.8995 18.4287 12.8995 18.0458 12.8995C17.6629 12.8995 17.28 12.8995 16.8971 12.8977C16.8971 12.755 16.8969 12.6122 16.8967 12.4695C16.896 12.0414 16.8954 11.6134 16.9007 11.1852C16.961 10.8554 17.3012 10.6037 17.631 10.625H19.1981C19.2016 9.77057 19.2016 8.91969 19.1981 8.06523C18.996 8.06523 18.794 8.06501 18.5919 8.0648C17.9857 8.06413 17.3794 8.06346 16.7731 8.06879Z" fill="#FF2C2C"/>
</g>
<defs>
<clipPath id="clip0_206_1880">
<rect width="30.4416" height="30.4416" fill="white" transform="translate(0.507812 0.149536)"/>
</clipPath>
</defs>
</svg>
