<svg width="28" height="27" viewBox="0 0 28 27" fill="none" xmlns="http://www.w3.org/2000/svg">
<path d="M13.7964 0C6.48376 0 0.555664 5.83148 0.555664 13.025C0.555664 20.2185 6.48376 26.05 13.7964 26.05C21.1091 26.05 27.0372 20.2185 27.0372 13.025C27.0372 5.83148 21.1091 0 13.7964 0ZM20.6785 8.23912L18.3268 19.2831C18.2984 19.4167 18.2362 19.5411 18.1462 19.6449C18.0561 19.7487 17.9409 19.8285 17.8113 19.8771C17.6816 19.9257 17.5416 19.9415 17.4042 19.923C17.2667 19.9045 17.1362 19.8523 17.0246 19.7712L13.6039 17.2852L11.5315 19.2084C11.5044 19.2336 11.4725 19.2532 11.4376 19.2661C11.4026 19.279 11.3655 19.2849 11.3282 19.2835C11.2909 19.2821 11.2543 19.2734 11.2205 19.258C11.1867 19.2425 11.1563 19.2206 11.1312 19.1934L11.0867 19.1453L11.4468 15.7173L17.937 9.88403C17.9691 9.85523 17.9891 9.81565 17.993 9.77308C17.9969 9.73052 17.9844 9.68807 17.958 9.6541C17.9316 9.62014 17.8933 9.59713 17.8505 9.58962C17.8078 9.5821 17.7637 9.59063 17.727 9.61351L9.42673 14.7813L5.85198 13.6003C5.75693 13.5689 5.67408 13.5093 5.61482 13.4297C5.55555 13.3502 5.52276 13.2545 5.52094 13.1559C5.51913 13.0573 5.54838 12.9605 5.60469 12.8789C5.66099 12.7973 5.74159 12.7348 5.83543 12.7L19.822 7.51705C19.9299 7.47711 20.0467 7.46641 20.1603 7.48608C20.2738 7.50575 20.3799 7.55506 20.4674 7.62885C20.5549 7.70265 20.6207 7.79822 20.6578 7.90557C20.695 8.01293 20.7021 8.12812 20.6785 8.23912Z" fill="white"/>
</svg>
