<svg width="28" height="27" viewBox="0 0 28 27" fill="none" xmlns="http://www.w3.org/2000/svg">
<g clip-path="url(#clip0_467_2074)">
<path fill-rule="evenodd" clip-rule="evenodd" d="M14.0914 26.4816C21.404 26.4816 27.3322 20.5535 27.3322 13.2408C27.3322 5.92811 21.404 0 14.0914 0C6.7787 0 0.850586 5.92811 0.850586 13.2408C0.850586 20.5535 6.7787 26.4816 14.0914 26.4816ZM15 6.88907C14.3336 6.90764 13.6306 7.06804 13.134 7.53991C12.7238 7.91929 12.5172 8.47145 12.4707 9.02341C12.4566 9.41819 12.4586 9.81402 12.4606 10.2097C12.4622 10.5064 12.4637 10.803 12.4584 11.0991C12.276 11.1004 12.093 11.1001 11.91 11.0997C11.6659 11.0992 11.4216 11.0987 11.1784 11.1022C11.1784 11.3385 11.1787 11.575 11.1791 11.8118C11.1798 12.2861 11.1805 12.7613 11.1784 13.2365C11.4216 13.2401 11.6659 13.2396 11.91 13.2391C12.093 13.2387 12.276 13.2383 12.4584 13.2396C12.4625 14.1814 12.4617 15.1232 12.461 16.0649C12.46 17.2421 12.4591 18.4192 12.4677 19.5964C12.9682 19.5928 13.4677 19.5933 13.9674 19.5938C14.3421 19.5942 14.717 19.5946 15.0924 19.5933C15.0955 18.5338 15.0948 17.4751 15.094 16.4165C15.0932 15.3577 15.0924 14.2991 15.0955 13.2396C15.348 13.2383 15.6004 13.2387 15.8529 13.2391C16.1896 13.2396 16.5262 13.2401 16.8628 13.2365C16.9677 12.5271 17.0571 11.8114 17.1064 11.0929C16.7734 11.0914 16.4403 11.0914 16.1071 11.0914C15.7741 11.0914 15.4409 11.0914 15.1079 11.0898C15.1079 10.9656 15.1077 10.8415 15.1075 10.7173C15.1069 10.3449 15.1064 9.97259 15.111 9.60012C15.1634 9.31322 15.4594 9.09422 15.7463 9.11278H17.1095C17.1126 8.36947 17.1126 7.62929 17.1095 6.88597C16.9338 6.88597 16.758 6.88579 16.5822 6.8856C16.0548 6.88502 15.5274 6.88444 15 6.88907Z" fill="white"/>
</g>
<defs>
<clipPath id="clip0_467_2074">
<rect width="26.4816" height="26.4816" fill="white" transform="translate(0.850586)"/>
</clipPath>
</defs>
</svg>
