<svg width="32" height="31" viewBox="0 0 32 31" fill="none" xmlns="http://www.w3.org/2000/svg">
<path fill-rule="evenodd" clip-rule="evenodd" d="M16.3176 0C24.8826 0 31.8364 6.84041 31.8364 15.2658C31.8364 23.6913 24.8826 30.5317 16.3176 30.5317C7.75257 30.5317 0.798828 23.6913 0.798828 15.2658C0.798828 6.84041 7.75257 0 16.3176 0ZM16.3176 5.72469C13.6835 5.72469 13.3531 5.73566 12.3186 5.78212C11.2862 5.82845 10.5812 5.98976 9.96417 6.2256C9.32639 6.46944 8.78548 6.79569 8.24626 7.32612C7.70704 7.85654 7.37539 8.38864 7.12751 9.01603C6.88776 9.62291 6.72384 10.3165 6.67668 11.332C6.62952 12.3497 6.61836 12.6746 6.61836 15.2658C6.61836 17.857 6.62952 18.182 6.67668 19.1997C6.72384 20.2152 6.88776 20.9088 7.12751 21.5157C7.37539 22.1431 7.70704 22.6751 8.24626 23.2056C8.78548 23.7361 9.32639 24.0623 9.96417 24.3062C10.5812 24.5419 11.2862 24.7032 12.3186 24.7496C13.3531 24.796 13.6835 24.807 16.3176 24.807C18.9517 24.807 19.282 24.796 20.3166 24.7496C21.3489 24.7032 22.054 24.5419 22.6709 24.3062C23.3087 24.0623 23.8496 23.7361 24.3889 23.2056C24.9281 22.6751 25.2598 22.1431 25.5077 21.5157C25.7474 20.9088 25.9113 20.2152 25.9584 19.1997C26.0057 18.182 26.0168 17.857 26.0168 15.2658C26.0168 12.6746 26.0057 12.3497 25.9584 11.332C25.9113 10.3165 25.7474 9.62291 25.5077 9.01603C25.2598 8.38864 24.9281 7.85654 24.3889 7.32612C23.8496 6.79569 23.3087 6.46944 22.6709 6.2256C22.054 5.98976 21.3489 5.82845 20.3166 5.78212C19.282 5.73566 18.9517 5.72469 16.3176 5.72469ZM16.3176 7.44383C18.9074 7.44383 19.2141 7.45355 20.2369 7.49947C21.1826 7.54192 21.6961 7.69733 22.0379 7.82798C22.4907 8.00103 22.8138 8.20784 23.1531 8.54172C23.4926 8.87554 23.7028 9.19344 23.8787 9.63877C24.0115 9.97498 24.1695 10.4801 24.2126 11.4104C24.2593 12.4165 24.2692 12.7182 24.2692 15.2658C24.2692 17.8135 24.2593 18.1152 24.2126 19.1213C24.1695 20.0516 24.0115 20.5567 23.8787 20.8929C23.7028 21.3383 23.4926 21.6562 23.1531 21.99C22.8138 22.3239 22.4907 22.5307 22.0379 22.7037C21.6961 22.8344 21.1826 22.9898 20.2369 23.0322C19.2143 23.0781 18.9076 23.0879 16.3176 23.0879C13.7276 23.0879 13.4209 23.0781 12.3983 23.0322C11.4526 22.9898 10.9391 22.8344 10.5973 22.7037C10.1445 22.5307 9.82141 22.3239 9.482 21.99C9.14259 21.6562 8.93242 21.3383 8.7565 20.8929C8.62368 20.5567 8.46564 20.0516 8.42248 19.1213C8.3758 18.1152 8.36598 17.8135 8.36598 15.2658C8.36598 12.7182 8.3758 12.4165 8.42248 11.4104C8.46564 10.4801 8.62368 9.97498 8.7565 9.63877C8.93242 9.19344 9.14259 8.87554 9.482 8.54172C9.82141 8.20784 10.1445 8.00103 10.5973 7.82798C10.9391 7.69733 11.4526 7.54192 12.3983 7.49947C13.421 7.45355 13.7278 7.44383 16.3176 7.44383ZM16.3176 10.3663C13.5668 10.3663 11.3369 12.5599 11.3369 15.2658C11.3369 17.9718 13.5668 20.1653 16.3176 20.1653C19.0684 20.1653 21.2983 17.9718 21.2983 15.2658C21.2983 12.5599 19.0684 10.3663 16.3176 10.3663ZM16.3176 18.4462C14.532 18.4462 13.0845 17.0223 13.0845 15.2658C13.0845 13.5094 14.532 12.0855 16.3176 12.0855C18.1032 12.0855 19.5506 13.5094 19.5506 15.2658C19.5506 17.0223 18.1032 18.4462 16.3176 18.4462ZM22.659 10.1728C22.659 10.8051 22.1379 11.3177 21.495 11.3177C20.8523 11.3177 20.3312 10.8051 20.3312 10.1728C20.3312 9.54044 20.8523 9.02784 21.495 9.02784C22.1379 9.02784 22.659 9.54044 22.659 10.1728Z" fill="#FF2C2C"/>
</svg>
