<svg width="78" height="12" viewBox="0 0 78 12" fill="none" xmlns="http://www.w3.org/2000/svg">
<path d="M0.666667 6C0.666667 8.94552 3.05448 11.3333 6 11.3333C8.94552 11.3333 11.3333 8.94552 11.3333 6C11.3333 3.05448 8.94552 0.666667 6 0.666667C3.05448 0.666667 0.666667 3.05448 0.666667 6ZM66.6667 6C66.6667 8.94552 69.0545 11.3333 72 11.3333C74.9455 11.3333 77.3333 8.94552 77.3333 6C77.3333 3.05448 74.9455 0.666667 72 0.666667C69.0545 0.666667 66.6667 3.05448 66.6667 6ZM6 7H72V5H6V7Z" fill="#F8BA00"/>
</svg>
