<svg width="28" height="28" viewBox="0 0 28 28" fill="none" xmlns="http://www.w3.org/2000/svg">
<g clip-path="url(#clip0_265_2264)">
<path d="M25.6072 12.8333C25.0577 7.33017 20.6698 2.94117 15.1667 2.39283V0H12.8333V2.39283C7.33017 2.94117 2.94117 7.33017 2.39283 12.8333H0V15.1667H2.39283C2.94233 20.6698 7.33017 25.0588 12.8333 25.6072V28H15.1667V25.6072C20.6698 25.0577 25.0588 20.6698 25.6072 15.1667H28V12.8333H25.6072ZM14 19.8333C10.7835 19.8333 8.16667 17.2165 8.16667 14C8.16667 10.7835 10.7835 8.16667 14 8.16667C17.2165 8.16667 19.8333 10.7835 19.8333 14C19.8333 17.2165 17.2165 19.8333 14 19.8333ZM17.5 14C17.5 15.9297 15.9297 17.5 14 17.5C12.0703 17.5 10.5 15.9297 10.5 14C10.5 12.0703 12.0703 10.5 14 10.5C15.9297 10.5 17.5 12.0703 17.5 14Z" fill="#F8BA00"/>
</g>
<defs>
<clipPath id="clip0_265_2264">
<rect width="28" height="28" fill="white"/>
</clipPath>
</defs>
</svg>
