<svg width="22" height="22" viewBox="0 0 22 22" fill="none" xmlns="http://www.w3.org/2000/svg">
<path d="M21.5618 19.8626L13.0728 11.3736L21.5618 2.88462C21.787 2.65947 21.9134 2.35411 21.9134 2.03572C21.9134 1.71732 21.787 1.41196 21.5618 1.18681C21.3367 0.961671 21.0313 0.835187 20.7129 0.835187C20.3945 0.835188 20.0892 0.961671 19.864 1.18681L11.375 9.67583L2.88599 1.18681C2.66085 0.961671 2.35549 0.835188 2.03709 0.835187C1.71869 0.835187 1.41333 0.961671 1.18819 1.18681C0.963043 1.41196 0.83656 1.71732 0.83656 2.03572C0.83656 2.35411 0.963043 2.65947 1.18819 2.88462L9.6772 11.3736L1.18819 19.8626C0.963044 20.0878 0.836559 20.3931 0.83656 20.7115C0.836559 21.0299 0.963044 21.3353 1.18819 21.5604C1.41333 21.7856 1.71869 21.9121 2.03709 21.9121C2.35549 21.9121 2.66085 21.7856 2.88599 21.5604L11.375 13.0714L19.864 21.5604C20.0892 21.7856 20.3945 21.9121 20.7129 21.9121C21.0313 21.9121 21.3367 21.7856 21.5618 21.5604C21.787 21.3353 21.9134 21.0299 21.9134 20.7115C21.9134 20.3931 21.787 20.0878 21.5618 19.8626Z" fill="#F8BA00"/>
</svg>
